<svg xmlns="http://www.w3.org/2000/svg" width="100" height="100" style="border: #aaa solid">
  <g>
    <path d="M0 10 H100 M0 20 H100 M0 30 H100 M0 40 H100 M0 50 H100 M0 60 H100 M0 70 H100 M0 80 H100 M0 90 H100 M0 100 H100
             M10 0 v100 M20 0 v100 M30 0 v100 M40 0 v100 M50 0 v100 M60 0 v100 M70 0 v100 M80 0 v100 M90 0 v100 M100 0 v100"
    stroke="#aaa" stroke-width=".2" fill="none" />
    <text x="0" y="3" font-size="3">0</text>
    <text x="8" y="3" font-size="3">10</text>
    <text x="18" y="3" font-size="3">20</text>
    <text x="28" y="3" font-size="3">30</text>
    <text x="38" y="3" font-size="3">40</text>
    <text x="48" y="3" font-size="3">50</text>
    <text x="58" y="3" font-size="3">60</text>
    <text x="68" y="3" font-size="3">70</text>
    <text x="78" y="3" font-size="3">80</text>
    <text x="88" y="3" font-size="3">90</text>
    <text y="11" x="0" font-size="3">10</text>
    <text y="21" x="0" font-size="3">20</text>
    <text y="31" x="0" font-size="3">30</text>
    <text y="41" x="0" font-size="3">40</text>
    <text y="51" x="0" font-size="3">50</text>
    <text y="61" x="0" font-size="3">60</text>
    <text y="71" x="0" font-size="3">70</text>
    <text y="81" x="0" font-size="3">80</text>
    <text y="91" x="0" font-size="3">90</text>
  </g>



  <!-- 多边形 -->
  <polygon points="30 30,40 30,50 40,50 50,40 60,30 60,20 50, 20 40" fill="none" stroke="blue" stroke-width="1" />

  <!-- 直线 -->
  <line x1="30" y1="30"
    x2="30" y2="60"
    stroke="#00ff11"
    stroke-width="1"/>
  <line x1="40" y1="30"
    x2="40" y2="60"
    stroke="#00ff11"
    stroke-width="1"/>
  <line x1="20" y1="40"
    x2="50" y2="40"
    stroke="#00ff11"
    stroke-width="1"/>
  <line x1="20" y1="50"
    x2="50" y2="50"
    stroke="#00ff11"
    stroke-width="1"/>

  <!-- 椭圆形 -->
  <ellipse cx="35" cy="45" rx="5" ry="15" fill="none" stroke="red" />
  <ellipse cx="35" cy="45" rx="15" ry="5" fill="none" stroke="red" />

  <!-- 点 -->
  <circle cx="30" cy="30" r="1" fill="red" stroke="none" />
  <circle cx="40" cy="30" r="1" fill="red" stroke="none" />
  <circle cx="50" cy="40" r="1" fill="red" stroke="none" />
  <circle cx="50" cy="50" r="1" fill="red" stroke="none" />
  <circle cx="40" cy="60" r="1" fill="red" stroke="none" />
  <circle cx="30" cy="60" r="1" fill="red" stroke="none" />
  <circle cx="20" cy="50" r="1" fill="red" stroke="none" />
  <circle cx="20" cy="40" r="1" fill="red" stroke="none" />

  <!-- 圆 -->
  <circle cx="35" cy="45" r="5" fill="none" stroke="#ff00c8" />
</svg>